{
	"asset":{
		"generator":"Khronos glTF Blender I/O v4.1.63",
		"version":"2.0"
	},
	"scene":0,
	"scenes":[
		{
			"name":"Scene",
			"nodes":[
				19
			]
		}
	],
	"nodes":[
		{
			"name":"head",
			"rotation":[
				0.02497660368680954,
				0,
				0,
				0.9996880292892456
			],
			"scale":[
				1,
				0.9999998807907104,
				1
			],
			"translation":[
				0,
				0.6007496118545532,
				3.725290298461914e-09
			]
		},
		{
			"name":"arm_tip.L",
			"rotation":[
				0.05114176124334335,
				-0.021600548177957535,
				-0.10188165307044983,
				0.9932462573051453
			],
			"scale":[
				0.9999999403953552,
				0.9999998807907104,
				0.9999999403953552
			],
			"translation":[
				-1.816079020500183e-08,
				0.3120657801628113,
				2.0489096641540527e-08
			]
		},
		{
			"children":[
				1
			],
			"name":"lower_arm.L",
			"rotation":[
				0.1491742879152298,
				-0.009021439589560032,
				-0.06277040392160416,
				0.9867753386497498
			],
			"scale":[
				0.9999999403953552,
				1,
				1
			],
			"translation":[
				5.1106326282024384e-08,
				0.33105894923210144,
				-1.862645149230957e-09
			]
		},
		{
			"children":[
				2
			],
			"name":"upper_arm.L",
			"rotation":[
				-0.01896802708506584,
				0.018968388438224792,
				-0.9757902026176453,
				0.21705736219882965
			],
			"scale":[
				1,
				1,
				1.0000001192092896
			],
			"translation":[
				0.2199999988079071,
				0.5008741617202759,
				-0.004993762820959091
			]
		},
		{
			"name":"foot.L",
			"rotation":[
				0.663875937461853,
				0.00625458313152194,
				-0.03169606253504753,
				0.7471445202827454
			],
			"scale":[
				0.9999999403953552,
				1,
				1
			],
			"translation":[
				1.7229467630386353e-08,
				0.5120481252670288,
				-1.862645149230957e-09
			]
		},
		{
			"children":[
				4
			],
			"name":"lower_leg.L",
			"rotation":[
				-0.022341622039675713,
				0.001831791247241199,
				-0.01626265048980713,
				0.9996164441108704
			],
			"translation":[
				2.0489096641540527e-08,
				0.5418586730957031,
				-1.3969838619232178e-09
			]
		},
		{
			"children":[
				5
			],
			"name":"upper_leg.L",
			"rotation":[
				-0.024703707545995712,
				0.0427035354077816,
				-0.9980577230453491,
				0.038038741797208786
			],
			"scale":[
				1.0000009536743164,
				1,
				1.000001311302185
			],
			"translation":[
				0.10000000149011612,
				0.00042865314753726125,
				-0.008573053404688835
			]
		},
		{
			"name":"arm_tip.R",
			"rotation":[
				0.05114176124334335,
				0.021600548177957535,
				0.10188165307044983,
				0.9932462573051453
			],
			"scale":[
				0.9999999403953552,
				0.9999998807907104,
				0.9999999403953552
			],
			"translation":[
				1.816079020500183e-08,
				0.3120657801628113,
				2.0489096641540527e-08
			]
		},
		{
			"children":[
				7
			],
			"name":"lower_arm.R",
			"rotation":[
				0.1491742879152298,
				0.009021439589560032,
				0.06277040392160416,
				0.9867753386497498
			],
			"scale":[
				0.9999999403953552,
				1,
				1
			],
			"translation":[
				-5.1106326282024384e-08,
				0.33105894923210144,
				-1.862645149230957e-09
			]
		},
		{
			"children":[
				8
			],
			"name":"upper_arm.R",
			"rotation":[
				-0.01896802708506584,
				-0.018968388438224792,
				0.9757902026176453,
				0.21705736219882965
			],
			"scale":[
				1,
				1,
				1.0000001192092896
			],
			"translation":[
				-0.2199999988079071,
				0.5008741617202759,
				-0.004993762820959091
			]
		},
		{
			"name":"foot.R",
			"rotation":[
				0.663875937461853,
				-0.00625458313152194,
				0.03169606253504753,
				0.7471445202827454
			],
			"scale":[
				0.9999999403953552,
				1,
				1
			],
			"translation":[
				-1.7229467630386353e-08,
				0.5120481252670288,
				-1.862645149230957e-09
			]
		},
		{
			"children":[
				10
			],
			"name":"lower_leg.R",
			"rotation":[
				-0.022341622039675713,
				-0.001831791247241199,
				0.01626265048980713,
				0.9996164441108704
			],
			"translation":[
				-2.0489096641540527e-08,
				0.5418586730957031,
				-1.3969838619232178e-09
			]
		},
		{
			"children":[
				11
			],
			"name":"upper_leg.R",
			"rotation":[
				-0.024703707545995712,
				-0.0427035354077816,
				0.9980577230453491,
				0.038038741797208786
			],
			"scale":[
				1.0000009536743164,
				1,
				1.000001311302185
			],
			"translation":[
				-0.10000000149011612,
				0.00042865314753726125,
				-0.008573053404688835
			]
		},
		{
			"children":[
				0,
				3,
				6,
				9,
				12
			],
			"name":"torso",
			"rotation":[
				-0.024976618587970734,
				0,
				0,
				0.9996880292892456
			],
			"scale":[
				1,
				0.9999999403953552,
				0.9999999403953552
			],
			"translation":[
				0,
				1.100000023841858,
				0
			]
		},
		{
			"name":"knee_IK.L",
			"rotation":[
				0.008478393778204918,
				-0.707055926322937,
				-0.707055926322937,
				0.008478393778204918
			],
			"translation":[
				0.14000000059604645,
				0.5600000023841858,
				0.3400130569934845
			]
		},
		{
			"name":"heel_IK.L",
			"rotation":[
				-5.338507591545749e-08,
				-0.7071067690849304,
				0.7071067690849304,
				5.338507591545749e-08
			],
			"translation":[
				0.1599999964237213,
				0.05000007152557373,
				-0.07000000029802322
			]
		},
		{
			"name":"knee_IK.R",
			"rotation":[
				0.008478393778204918,
				0.707055926322937,
				0.707055926322937,
				0.008478393778204918
			],
			"translation":[
				-0.14000000059604645,
				0.5600000023841858,
				0.3400130569934845
			]
		},
		{
			"name":"heel_IK.R",
			"rotation":[
				-5.338507591545749e-08,
				0.7071067690849304,
				-0.7071067690849304,
				5.338507591545749e-08
			],
			"translation":[
				-0.1599999964237213,
				0.05000007152557373,
				-0.07000000029802322
			]
		},
		{
			"mesh":0,
			"name":"Cube",
			"skin":0
		},
		{
			"children":[
				18,
				13,
				14,
				15,
				16,
				17
			],
			"name":"Armature"
		}
	],
	"meshes":[
		{
			"name":"Cube.001",
			"primitives":[
				{
					"attributes":{
						"POSITION":0,
						"NORMAL":1,
						"TEXCOORD_0":2,
						"TANGENT":3,
						"JOINTS_0":4,
						"WEIGHTS_0":5
					},
					"indices":6
				}
			]
		}
	],
	"skins":[
		{
			"inverseBindMatrices":7,
			"joints":[
				13,
				0,
				3,
				2,
				1,
				6,
				5,
				4,
				9,
				8,
				7,
				12,
				11,
				10,
				14,
				15,
				16,
				17
			],
			"name":"Armature"
		}
	],
	"accessors":[
		{
			"bufferView":0,
			"componentType":5126,
			"count":736,
			"max":[
				0.5071923136711121,
				1.9999996423721313,
				0.16531895101070404
			],
			"min":[
				-0.5071923136711121,
				0,
				-0.17523173987865448
			],
			"type":"VEC3"
		},
		{
			"bufferView":1,
			"componentType":5126,
			"count":736,
			"type":"VEC3"
		},
		{
			"bufferView":2,
			"componentType":5126,
			"count":736,
			"type":"VEC2"
		},
		{
			"bufferView":3,
			"componentType":5126,
			"count":736,
			"type":"VEC4"
		},
		{
			"bufferView":4,
			"componentType":5121,
			"count":736,
			"type":"VEC4"
		},
		{
			"bufferView":5,
			"componentType":5126,
			"count":736,
			"type":"VEC4"
		},
		{
			"bufferView":6,
			"componentType":5123,
			"count":1104,
			"type":"SCALAR"
		},
		{
			"bufferView":7,
			"componentType":5126,
			"count":18,
			"type":"MAT4"
		}
	],
	"bufferViews":[
		{
			"buffer":0,
			"byteLength":8832,
			"byteOffset":0,
			"target":34962
		},
		{
			"buffer":0,
			"byteLength":8832,
			"byteOffset":8832,
			"target":34962
		},
		{
			"buffer":0,
			"byteLength":5888,
			"byteOffset":17664,
			"target":34962
		},
		{
			"buffer":0,
			"byteLength":11776,
			"byteOffset":23552,
			"target":34962
		},
		{
			"buffer":0,
			"byteLength":2944,
			"byteOffset":35328,
			"target":34962
		},
		{
			"buffer":0,
			"byteLength":11776,
			"byteOffset":38272,
			"target":34962
		},
		{
			"buffer":0,
			"byteLength":2208,
			"byteOffset":50048,
			"target":34963
		},
		{
			"buffer":0,
			"byteLength":1152,
			"byteOffset":52256
		}
	],
	"buffers":[
		{
			"byteLength":53408,
			"uri":"basic_enemy-6c46c7d727a90acb8c96c518654e9af8.bin"
		}
	]
}
