{
	"asset":{
		"generator":"Khronos glTF Blender I/O v4.0.44",
		"version":"2.0"
	},
	"scene":0,
	"scenes":[
		{
			"name":"Scene",
			"nodes":[
				0,
				1
			]
		}
	],
	"nodes":[
		{
			"mesh":0,
			"name":"Size Ref -noimp"
		},
		{
			"mesh":1,
			"name":"World -col"
		}
	],
	"materials":[
		{
			"doubleSided":true,
			"name":"Obsticles ",
			"pbrMetallicRoughness":{
				"baseColorFactor":[
					0.800000011920929,
					0.800000011920929,
					0.800000011920929,
					1
				],
				"metallicFactor":0,
				"roughnessFactor":0.5
			}
		},
		{
			"doubleSided":true,
			"name":"Floor",
			"pbrMetallicRoughness":{
				"baseColorFactor":[
					0.800000011920929,
					0.800000011920929,
					0.800000011920929,
					1
				],
				"metallicFactor":0,
				"roughnessFactor":0.5
			}
		}
	],
	"meshes":[
		{
			"name":"Cube.001",
			"primitives":[
				{
					"attributes":{
						"POSITION":0,
						"NORMAL":1,
						"TEXCOORD_0":2,
						"TANGENT":3
					},
					"indices":4
				}
			]
		},
		{
			"name":"Cube.002",
			"primitives":[
				{
					"attributes":{
						"POSITION":5,
						"NORMAL":6,
						"TEXCOORD_0":7
					},
					"indices":8,
					"material":0
				},
				{
					"attributes":{
						"POSITION":9,
						"NORMAL":10,
						"TEXCOORD_0":11
					},
					"indices":12,
					"material":1
				}
			]
		}
	],
	"accessors":[
		{
			"bufferView":0,
			"componentType":5126,
			"count":24,
			"max":[
				0.5,
				2,
				0.5
			],
			"min":[
				-0.5,
				0,
				-0.5
			],
			"type":"VEC3"
		},
		{
			"bufferView":1,
			"componentType":5126,
			"count":24,
			"type":"VEC3"
		},
		{
			"bufferView":2,
			"componentType":5126,
			"count":24,
			"type":"VEC2"
		},
		{
			"bufferView":3,
			"componentType":5126,
			"count":24,
			"type":"VEC4"
		},
		{
			"bufferView":4,
			"componentType":5123,
			"count":36,
			"type":"SCALAR"
		},
		{
			"bufferView":5,
			"componentType":5126,
			"count":888,
			"max":[
				15,
				4,
				15
			],
			"min":[
				-15,
				0,
				-15.000000953674316
			],
			"type":"VEC3"
		},
		{
			"bufferView":6,
			"componentType":5126,
			"count":888,
			"type":"VEC3"
		},
		{
			"bufferView":7,
			"componentType":5126,
			"count":888,
			"type":"VEC2"
		},
		{
			"bufferView":8,
			"componentType":5123,
			"count":1668,
			"type":"SCALAR"
		},
		{
			"bufferView":9,
			"componentType":5126,
			"count":28,
			"max":[
				30,
				2,
				30
			],
			"min":[
				-30,
				0,
				-30
			],
			"type":"VEC3"
		},
		{
			"bufferView":10,
			"componentType":5126,
			"count":28,
			"type":"VEC3"
		},
		{
			"bufferView":11,
			"componentType":5126,
			"count":28,
			"type":"VEC2"
		},
		{
			"bufferView":12,
			"componentType":5123,
			"count":54,
			"type":"SCALAR"
		}
	],
	"bufferViews":[
		{
			"buffer":0,
			"byteLength":288,
			"byteOffset":0,
			"target":34962
		},
		{
			"buffer":0,
			"byteLength":288,
			"byteOffset":288,
			"target":34962
		},
		{
			"buffer":0,
			"byteLength":192,
			"byteOffset":576,
			"target":34962
		},
		{
			"buffer":0,
			"byteLength":384,
			"byteOffset":768,
			"target":34962
		},
		{
			"buffer":0,
			"byteLength":72,
			"byteOffset":1152,
			"target":34963
		},
		{
			"buffer":0,
			"byteLength":10656,
			"byteOffset":1224,
			"target":34962
		},
		{
			"buffer":0,
			"byteLength":10656,
			"byteOffset":11880,
			"target":34962
		},
		{
			"buffer":0,
			"byteLength":7104,
			"byteOffset":22536,
			"target":34962
		},
		{
			"buffer":0,
			"byteLength":3336,
			"byteOffset":29640,
			"target":34963
		},
		{
			"buffer":0,
			"byteLength":336,
			"byteOffset":32976,
			"target":34962
		},
		{
			"buffer":0,
			"byteLength":336,
			"byteOffset":33312,
			"target":34962
		},
		{
			"buffer":0,
			"byteLength":224,
			"byteOffset":33648,
			"target":34962
		},
		{
			"buffer":0,
			"byteLength":108,
			"byteOffset":33872,
			"target":34963
		}
	],
	"buffers":[
		{
			"byteLength":33980,
			"uri":"test_world-67b4fbc14e9bb3f8635752464b5d4d9c.bin"
		}
	]
}
